
<svg version="1.1" id="Layer_1" xmlns="http://www.w3.org/2000/svg" xmlns:xlink="http://www.w3.org/1999/xlink" x="0px" y="0px"
	viewBox="0 0 35 32" style="enable-background:new 0 0 35 32;" xml:space="preserve">
<style type="text/css">
	.st0{fill:none;}
	.st1{fill:#FECA0D;}
	.st2{fill:#F9A125;}
	.st3{fill:#FDE799;}
	.st4{fill:#FDE89B;}
	.st5{fill:#FDCB19;}
	.st6{fill:#4B505D;}
	.st7{fill:#4A4F5D;}
	.st8{fill:#FEE68A;}
	.st9{fill:#F8A328;}
	.st10{fill:#5E616B;}
	.st11{fill:#F9A020;}
	.st12{fill:#F16D24;}
	.st13{fill:#47423C;}
	.st14{fill:#E86E24;}
	.st15{fill:#E76E24;}
	.st16{fill:#E66E24;}
	.st17{fill:#865325;}
	.st18{fill:#8E5E2C;}
	.st19{fill:#BD7129;}
	.st20{fill:#895C2E;}
	.st21{fill:#F68A21;}
</style>
<path class="st0" d="M0,0"/>
<path class="st0" d="M0,0"/>
<g>
	<g>
		<g>
			<path class="st1" d="M7.6,26c-0.4-0.4-0.8-0.8-1.2-1.2c0,0-0.1-0.1-0.1-0.1c0,0-0.1-0.1-0.1-0.1c0,0,0-0.1,0-0.1
				c0-0.1-0.1-0.1-0.1-0.2c-0.1-0.2-0.1-0.3-0.2-0.5c-0.9-1.7-1.3-3.5-1.1-5.4c0.2-2.1,1.1-4,2.5-5.5c2.1-2.2,4.7-3.1,7.8-2.9
				c0,0.2,0,0.3,0,0.5c0,0.6,0.3,0.9,1,1c0,0,0,0,0.1,0c0.1,0,0.1,0.1,0.2,0.1c1.7,0,3.5,0,5.2,0c0.7,0,0.8-0.2,0.8-0.8
				c0-0.6,0.1-0.8,0.8-0.8c3.2,0,6.4,0,9.6,0c0.2,0,0.4,0.1,0.6,0.1c0,0.1,0.1,0.3,0.1,0.4c0,1,0,2.1,0,3.1c0,0.3-0.2,0.5-0.5,0.6
				c-1.3,0.2-2.5,0.3-3.8,0.5c-1.4,0.2-2.8,0.4-4.2,0.5c-0.8,0.1-1.5,0.2-2.3,0.3c-0.5,0.1-0.7,0.3-0.6,0.7c0.3,1.2,0.3,2.4,0.1,3.7
				c-0.3,2-1.3,3.7-2.7,5.1c-1,1-2.2,1.7-3.6,2.2c-2.1,0.7-4.2,0.6-6.2-0.1c-0.6-0.2-1.2-0.5-1.7-0.8c0,0,0,0,0,0
				c0,0-0.1-0.1-0.1-0.1c0,0,0,0,0,0c-0.1,0-0.1-0.1-0.2-0.1c0,0,0,0,0,0C7.7,26.1,7.7,26.1,7.6,26z M17.1,15.1L17.1,15.1
				c-0.1,0-0.1-0.1-0.2-0.1l0,0c-0.1-0.1-0.1-0.2-0.2-0.2c-0.8-0.7-1.8-1-2.8-1.1c-2.6-0.2-4.7,1.4-5.4,3.9
				c-0.5,1.8-0.1,3.4,1.1,4.7l0,0c0,0,0.1,0.1,0.1,0.1c0.2,0.2,0.4,0.4,0.7,0.6c2,1.5,4.9,1.4,6.7-0.4c1.3-1.3,1.8-3,1.5-4.8
				c-0.2-1-0.7-1.9-1.5-2.6C17.2,15.1,17.2,15.1,17.1,15.1z"/>
			<path class="st2" d="M8,26.3c0.6,0.3,1.2,0.5,1.7,0.8c2.1,0.8,4.1,0.8,6.2,0.1c1.4-0.4,2.6-1.2,3.6-2.2c1.4-1.4,2.3-3.1,2.7-5.1
				c0.2-1.2,0.2-2.5-0.1-3.7c-0.1-0.4,0.1-0.7,0.6-0.7c0.8-0.1,1.5-0.2,2.3-0.3c1.4-0.2,2.8-0.4,4.2-0.5c1.3-0.2,2.5-0.3,3.8-0.5
				c0.3,0,0.5-0.2,0.5-0.6c0-1,0-2.1,0-3.1c0-0.1-0.1-0.3-0.1-0.4c0.2-0.1,0.3-0.3,0.5-0.4c0,0.2,0.1,0.4,0.1,0.6c0,1.2,0,2.5,0,3.7
				c0,0.6-0.1,0.7-0.7,0.8c-2.1,0.3-4.2,0.5-6.3,0.8c-1.2,0.2-2.5,0.3-3.7,0.5c-0.6,0.1-0.7,0.3-0.6,0.9c0.4,1.8,0.2,3.6-0.5,5.4
				c-1.4,3.2-3.8,5.2-7.3,5.7c-2.4,0.4-4.7-0.2-6.7-1.5C8.2,26.5,8.1,26.4,8,26.3z"/>
			<path class="st3" d="M15.1,10.1c-3-0.2-5.7,0.7-7.8,2.9c-1.5,1.5-2.3,3.3-2.5,5.5c-0.2,1.9,0.2,3.7,1.1,5.4
				c0.1,0.1,0.1,0.3,0.2,0.5c-0.3-0.5-0.7-0.9-0.9-1.5c-0.3-0.8-0.5-1.7-0.8-2.5c0-1,0-2.1,0-3.1c0.3-1.8,1.1-3.3,2.2-4.6
				c1.6-1.8,3.6-2.8,5.9-3.1c0.9-0.1,1.8,0,2.7,0c0.1,0,0.2,0.1,0.3,0.2C15.4,9.8,15.3,9.9,15.1,10.1z"/>
			<path class="st4" d="M34,9.7c-0.2,0.1-0.3,0.3-0.5,0.4c-0.2,0-0.4-0.1-0.6-0.1c-3.2,0-6.4,0-9.6,0c-0.6,0-0.8,0.1-0.8,0.8
				c0,0.7-0.2,0.8-0.8,0.8c-1.7,0-3.5,0-5.2,0c-0.1,0-0.1-0.1-0.2-0.1c0,0,0,0-0.1,0c-0.1-0.2-0.2-0.4-0.3-0.5
				c0.2,0,0.4,0.1,0.6,0.1c1.6,0,3.2,0,4.8,0c0.6,0,0.7-0.1,0.7-0.7c0-0.7,0.1-0.8,0.8-0.8c0.2,0,0.3,0.1,0.5,0.1c3.2,0,6.4,0,9.6,0
				c0.2,0,0.3-0.1,0.5-0.1C33.5,9.6,33.8,9.7,34,9.7z"/>
			<path class="st5" d="M4.4,17.3c0,1,0,2.1,0,3.1c-1.2,0.8-2.5,0.7-3.2-0.4c-0.5-0.8-0.4-1.9,0.2-2.6c0.7-0.7,1.8-0.8,2.6-0.3
				C4.2,17.2,4.3,17.3,4.4,17.3z M1.9,18.9c0,0.6,0.4,1.1,1,1.1c0.5,0,1.1-0.5,1.1-1c0-0.5-0.5-1-1-1.1C2.4,17.8,1.9,18.3,1.9,18.9z
				"/>
			<path class="st6" d="M16.1,7.2c-0.5-0.7-0.9-1.4-1.4-2.2C14.9,5,15,4.9,15.2,4.8c0.5,0.7,0.9,1.5,1.4,2.2
				C16.4,7.1,16.2,7.2,16.1,7.2z"/>
			<path class="st7" d="M22.9,5.1c-0.5,0.8-0.9,1.5-1.4,2.2C21.3,7.2,21.2,7.1,21,7c0.5-0.7,0.9-1.5,1.4-2.2
				C22.6,4.9,22.7,5,22.9,5.1z"/>
			<path class="st8" d="M33.3,9.6c-0.2,0-0.3,0.1-0.5,0.1c-3.2,0-6.4,0-9.6,0c-0.2,0-0.3-0.1-0.5-0.1C26.3,9.6,29.8,9.6,33.3,9.6z"
				/>
			<path class="st7" d="M18.5,6.3c0-0.8,0-1.6,0-2.3c0.3,0,0.4,0.1,0.4,0.4c0,0.5,0,1.1,0,1.6C18.9,6.2,18.8,6.3,18.5,6.3z"/>
			<path class="st9" d="M15.8,11c0.1,0.2,0.2,0.4,0.3,0.5c-0.7,0-1-0.3-1-1c0-0.2,0-0.3,0-0.5c0.1-0.1,0.3-0.2,0.4-0.3
				c0.1,0.4,0.1,0.8,0.2,1.1C15.8,10.9,15.8,10.9,15.8,11L15.8,11z"/>
			<path class="st10" d="M18.5,6.3c0.3,0,0.4-0.1,0.4-0.4c0-0.5,0-1.1,0-1.6c0-0.3-0.1-0.4-0.4-0.4c0.2-0.1,0.3-0.1,0.5-0.2
				c0,0.9,0,1.8,0,2.7C18.9,6.4,18.7,6.3,18.5,6.3z"/>
			<path class="st2" d="M7.8,26.1c0.1,0,0.1,0.1,0.2,0.1C7.9,26.2,7.8,26.2,7.8,26.1z"/>
			<path class="st4" d="M15.8,11c0,0,0-0.1-0.1-0.1C15.8,10.9,15.8,10.9,15.8,11z"/>
			<path class="st3" d="M6.2,24.5C6.3,24.5,6.3,24.6,6.2,24.5C6.3,24.6,6.2,24.6,6.2,24.5C6.2,24.6,6.2,24.6,6.2,24.5z"/>
			<path class="st3" d="M6.4,24.7c0,0,0.1,0.1,0.1,0.1C6.4,24.8,6.4,24.7,6.4,24.7z"/>
			<path class="st2" d="M7.6,26c0,0,0.1,0.1,0.1,0.1C7.7,26.1,7.7,26.1,7.6,26z"/>
			<path class="st2" d="M7.9,26.2c0,0,0.1,0.1,0.1,0.1C8,26.3,8,26.3,7.9,26.2z"/>
			<path class="st11" d="M17.2,15.2c0.8,0.7,1.2,1.6,1.5,2.6c0.4,1.9-0.1,3.5-1.5,4.8c-1.8,1.8-4.7,2-6.7,0.4
				c-0.2-0.2-0.5-0.4-0.7-0.6c0,0-0.1-0.1-0.1-0.1c0,0,0,0,0,0c0-0.1,0-0.2-0.1-0.3c-0.8-1.3-0.9-2.7-0.5-4.1
				c0.8-2.6,3.3-4.1,5.9-3.6c0.6,0.1,1.2,0.4,1.8,0.7c0,0,0,0,0,0c0.1,0,0.1,0.1,0.2,0.1c0,0,0,0,0,0C17.2,15.1,17.2,15.1,17.2,15.2
				z"/>
			<path class="st12" d="M16.9,15c-0.6-0.2-1.2-0.5-1.8-0.7c-2.7-0.5-5.2,1-5.9,3.6c-0.4,1.4-0.3,2.8,0.5,4.1c0,0.1,0,0.2,0.1,0.3
				c-1.2-1.4-1.6-3-1.1-4.7c0.7-2.5,2.8-4,5.4-3.9c1,0.1,2,0.4,2.8,1.1C16.8,14.8,16.9,14.9,16.9,15z"/>
			<path class="st9" d="M16.2,11.5c0.1,0,0.1,0.1,0.2,0.1C16.3,11.6,16.2,11.6,16.2,11.5z"/>
			<path class="st12" d="M17.1,15.1c-0.1,0-0.1-0.1-0.2-0.1C17,15,17.1,15.1,17.1,15.1z"/>
			<path class="st12" d="M17.2,15.2c0,0-0.1-0.1-0.1-0.1C17.2,15.1,17.2,15.1,17.2,15.2z"/>
			<path class="st12" d="M9.7,22.3c0,0,0.1,0.1,0.1,0.1C9.8,22.4,9.8,22.3,9.7,22.3z"/>
		</g>
	</g>
	<g>
		<g>
			<path class="st13" d="M13.5,13.7c0.8,0,1.5,0.2,2.2,0.5c0.5,0.2,0.9,0.5,1.3,0.9c0.5,0.4,0.9,1,1.2,1.6c0.3,0.5,0.4,1.1,0.5,1.7
				c0.1,1-0.1,2-0.5,2.9c-0.2,0.4-0.4,0.7-0.7,1c-0.7,0.9-1.7,1.5-2.8,1.7c-0.3,0.1-0.6,0.1-0.9,0.1c-0.7,0-1.4,0-2-0.3
				c-0.6-0.2-1.2-0.5-1.7-1c-0.5-0.5-1-1-1.3-1.6c-0.3-0.5-0.4-1.1-0.5-1.7c-0.1-1,0.1-2,0.5-2.9c0.4-0.8,1-1.4,1.7-1.9
				c0.6-0.5,1.4-0.7,2.1-0.9c0.1,0,0.2,0,0.4,0C13.3,13.7,13.4,13.7,13.5,13.7z M18.1,20.9C18.1,20.9,18.1,20.9,18.1,20.9
				C18.1,20.9,18.1,20.9,18.1,20.9c0.2-0.5,0.3-0.9,0.4-1.4c0,0,0-0.1,0-0.1c-0.1,0.1-0.2,0.2-0.3,0.3c0,0,0,0,0,0
				c-0.4,0.3-0.8,0.5-1.3,0.7c-0.3,0.1-0.5,0.1-0.8,0.2c0,0,0,0,0,0c0,0.1,0,0.1,0,0.2c0,0.1,0,0.3,0,0.4c0,0.1,0,0.1,0,0.2
				c0.1,0,0.2,0,0.3,0c0.1,0,0.2,0,0.4,0c0.3,0,0.6,0.2,0.8,0.4c0,0,0.1,0.1,0.1,0.1c0.1-0.1,0.2-0.2,0.2-0.3
				C17.9,21.3,18,21.1,18.1,20.9C18.1,20.9,18.1,20.9,18.1,20.9z M17.8,18.1C17.8,18.1,17.8,18.1,17.8,18.1
				c-0.4,0.5-0.9,0.8-1.4,0.9c-0.1,0-0.2,0.1-0.4,0.1c0,0.4,0,0.7,0,1.1c0.5-0.1,0.9-0.2,1.3-0.4c0.3-0.1,0.5-0.3,0.8-0.5
				c0.1-0.1,0.3-0.2,0.4-0.4c0,0,0,0,0,0c0-0.1,0-0.3,0-0.4c0-0.4-0.1-0.8-0.2-1.2c0,0,0,0,0,0c-0.1,0.1-0.1,0.3-0.2,0.4
				C18,17.8,17.9,17.9,17.8,18.1z M8.6,18.7c0,0.1,0,0.2,0,0.3c0,0,0,0.1,0,0.1c0,0,0,0.1,0,0.1c0.1,0.1,0.2,0.2,0.3,0.3
				c0,0,0,0,0,0c0.3,0.2,0.6,0.3,0.9,0.5c0.5,0.2,1.1,0.3,1.6,0.4c0.2,0,0.5,0,0.7,0.1c0.2,0,0.4,0,0.6,0c0.2,0,0.4,0,0.6,0
				c0.1,0,0.2,0,0.3,0c0.2,0,0.3,0,0.5,0c0.1,0,0.2,0,0.3,0c0.3,0,0.6-0.1,0.9-0.1c0.2,0,0.3-0.1,0.5-0.1c0,0,0,0,0,0
				c0-0.2,0-0.4,0-0.6c0-0.1,0-0.3,0-0.4c0,0,0,0,0-0.1c-0.1,0-0.2,0-0.3,0c0,0-0.1,0-0.1,0c0,0-0.1,0-0.1,0c0,0-0.1,0-0.1,0
				c0,0-0.1,0-0.1,0c-0.1,0-0.3,0-0.4-0.1C14.3,19,14,19,13.8,18.8c-0.5-0.2-0.9-0.4-1.3-0.7c-0.5-0.3-0.9-0.7-1.4-1.1
				c-0.2-0.2-0.4-0.3-0.6-0.5c-0.2-0.2-0.4-0.3-0.6-0.5c-0.1-0.1-0.2-0.1-0.3-0.2c-0.1,0.1-0.2,0.3-0.3,0.4
				C8.9,17.1,8.7,17.8,8.6,18.7z M15.1,15.6C15.1,15.6,15.1,15.6,15.1,15.6c0.1,0.2,0.2,0.5,0.3,0.7c0.2,0.5,0.4,1.1,0.5,1.7
				c0,0.2,0.1,0.4,0.1,0.6c0,0.1,0,0.2,0,0.2c0.4-0.1,0.8-0.2,1.1-0.5c0.2-0.2,0.4-0.3,0.6-0.6c0,0,0,0,0,0c0.2-0.3,0.3-0.6,0.4-0.9
				c0,0,0-0.1,0-0.1c-0.6-1.2-1.4-2-2.7-2.5c-0.4-0.2-0.8-0.3-1.2-0.3c-0.2,0-0.3,0-0.5,0c0,0-0.1,0-0.1,0c0,0,0,0,0,0c0,0,0,0,0,0
				c0.4,0.3,0.7,0.7,1,1.1C14.8,15.2,14.9,15.4,15.1,15.6C15.1,15.6,15.1,15.6,15.1,15.6z M13.5,23.8c0.1,0,0.2,0,0.3,0
				c0.1,0,0.2,0,0.3,0c0.3,0,0.6-0.1,0.8-0.1c0.1,0,0.1,0,0.2-0.2c0,0,0,0,0-0.1c0.3-0.5,0.4-1,0.6-1.6c0-0.1,0-0.1,0-0.2
				c0,0,0,0,0,0c0,0,0,0,0,0c-0.5,0.1-1,0.3-1.5,0.6c-0.7,0.4-1.4,0.9-2,1.4c0,0,0,0,0,0C12.6,23.7,13,23.8,13.5,23.8z M14.7,15.5
				C14.7,15.5,14.7,15.5,14.7,15.5c-0.1-0.2-0.3-0.5-0.5-0.7c-0.3-0.3-0.5-0.6-0.9-0.8c-0.1,0-0.1-0.1-0.2,0c-0.2,0-0.4,0.1-0.6,0.1
				c-1.1,0.2-2,0.8-2.7,1.6c0,0,0,0,0,0c0.1,0.1,0.2,0.2,0.4,0.2c0.2,0.1,0.4,0.3,0.6,0.4c0,0,0,0,0,0c0.2,0.1,0.3,0.3,0.5,0.4
				c0.5,0.4,1,0.8,1.5,1.2c0.4,0.3,0.9,0.5,1.3,0.7c0.3,0.1,0.7,0.2,1,0.2c0.1,0,0.1,0,0.2,0c0,0,0,0,0,0c0,0,0.1,0,0.1,0
				c0.1,0,0.2,0,0.3,0c0-0.1,0-0.2,0-0.3c0-0.2-0.1-0.4-0.1-0.6c-0.1-0.6-0.3-1.2-0.5-1.8C15,16,14.8,15.7,14.7,15.5
				C14.7,15.5,14.7,15.5,14.7,15.5z M9.1,20.9C9.1,20.9,9.1,20.9,9.1,20.9c0.1,0.3,0.3,0.6,0.5,0.8c0.6,0.8,1.3,1.4,2.3,1.8
				c0,0,0.1,0,0.1,0c0.5-0.4,0.9-0.7,1.4-1c0.7-0.5,1.5-0.9,2.4-1.1c0,0,0,0,0,0c0-0.2,0-0.4,0.1-0.6c0-0.1,0-0.1,0-0.2
				c-0.2,0-0.4,0.1-0.6,0.1c-0.4,0-0.8,0.1-1.1,0.1c-0.2,0-0.3,0-0.5,0c-0.1,0-0.3,0-0.4,0c-0.2,0-0.3,0-0.5,0c-0.1,0-0.2,0-0.3,0
				c-0.2,0-0.3,0-0.5,0c-0.1,0-0.2,0-0.4,0c-0.2,0-0.4-0.1-0.6-0.1c-0.4-0.1-0.8-0.2-1.1-0.3C9.5,20.2,9.3,20,9,19.8
				c-0.1-0.1-0.2-0.1-0.3-0.2c0,0,0,0,0,0.1c0,0.2,0.1,0.4,0.1,0.6C8.9,20.5,9,20.7,9.1,20.9z M15.3,23.5
				C15.3,23.5,15.4,23.5,15.3,23.5c0.6-0.2,1-0.5,1.4-0.8c0.2-0.2,0.4-0.4,0.6-0.6c0,0,0,0,0-0.1c-0.1-0.1-0.1-0.2-0.2-0.3
				c-0.2-0.2-0.5-0.2-0.7-0.3c-0.1,0-0.3,0-0.4,0c0,0,0,0,0,0c-0.1,0.4-0.2,0.7-0.3,1.1C15.6,22.9,15.5,23.2,15.3,23.5z"/>
			<path class="st14" d="M14.7,15.5C14.7,15.5,14.7,15.5,14.7,15.5c-0.3-0.1-0.6-0.1-0.9-0.1c-0.7,0-1.4,0.1-2.1,0.4
				c-0.4,0.2-0.7,0.4-1,0.6c-0.2-0.1-0.4-0.3-0.6-0.4c-0.1-0.1-0.2-0.2-0.4-0.2c0,0,0,0,0,0c0.7-0.8,1.6-1.4,2.7-1.6
				c0.2,0,0.4-0.1,0.6-0.1c0.1,0,0.2,0,0.2,0c0.4,0.2,0.6,0.5,0.9,0.8C14.4,15,14.6,15.2,14.7,15.5z"/>
			<path class="st14" d="M15.1,15.6c-0.1-0.2-0.2-0.4-0.3-0.6c-0.3-0.4-0.6-0.8-1-1.1c0,0,0,0,0,0c0,0,0,0,0,0c0,0,0.1,0,0.1,0
				c0.2,0,0.3,0,0.5,0c0.4,0.1,0.8,0.2,1.2,0.3c1.2,0.5,2.1,1.3,2.7,2.5c0,0,0,0.1,0,0.1c-0.1,0.3-0.2,0.6-0.4,0.9c0,0,0,0,0,0
				c0,0,0,0,0-0.1c-0.3-0.5-0.6-0.9-1.1-1.3c-0.4-0.3-0.9-0.6-1.4-0.8C15.2,15.6,15.1,15.6,15.1,15.6C15.1,15.6,15.1,15.6,15.1,15.6
				C15.1,15.6,15.1,15.6,15.1,15.6z"/>
			<path class="st14" d="M10.5,16.5c-0.2,0.2-0.5,0.5-0.7,0.7c-0.4,0.5-0.6,1.1-0.8,1.7C9,19.2,9,19.3,9,19.5
				c-0.1-0.1-0.2-0.2-0.3-0.3c0,0,0-0.1,0-0.1c0,0,0-0.1,0-0.1c0-0.1,0-0.2,0-0.3c0-0.9,0.3-1.7,0.7-2.4c0.1-0.1,0.2-0.3,0.3-0.4
				c0.1,0.1,0.2,0.1,0.3,0.2C10.1,16.2,10.3,16.4,10.5,16.5z"/>
			<path class="st14" d="M18.2,19.3c0-0.2-0.1-0.4-0.1-0.5c-0.1-0.2-0.1-0.4-0.2-0.6c0,0,0,0,0-0.1c0.1-0.1,0.2-0.3,0.3-0.4
				c0.1-0.1,0.1-0.3,0.2-0.4c0,0,0,0,0,0c0.1,0.4,0.2,0.8,0.2,1.2c0,0.1,0,0.3,0,0.4c0,0,0,0,0,0C18.4,19,18.3,19.2,18.2,19.3z"/>
			<path class="st15" d="M18.1,20.9c0-0.1,0-0.2,0-0.3c0.1-0.3,0.1-0.7,0-1c0,0,0,0,0,0c0.1-0.1,0.2-0.2,0.3-0.3c0,0.1,0,0.1,0,0.1
				C18.5,19.9,18.3,20.4,18.1,20.9C18.1,20.9,18.1,20.9,18.1,20.9z"/>
			<path class="st16" d="M9,19.8c0,0.3,0,0.6,0.1,0.9c0,0,0,0.1,0,0.1c-0.1-0.2-0.2-0.4-0.2-0.6c-0.1-0.2-0.1-0.4-0.1-0.6
				c0,0,0,0,0-0.1C8.8,19.7,8.9,19.8,9,19.8z"/>
			<path class="st17" d="M8.6,18.7c0,0.1,0,0.2,0,0.3C8.6,18.9,8.6,18.8,8.6,18.7z"/>
			<path class="st18" d="M13.5,23.8c0.1,0,0.2,0,0.3,0C13.6,23.8,13.5,23.8,13.5,23.8z"/>
			<path class="st19" d="M15.1,18.9c0.1,0,0.1,0,0.2,0C15.2,18.9,15.2,18.9,15.1,18.9z"/>
			<path class="st19" d="M15.3,18.9c0,0,0.1,0,0.1,0C15.4,18.9,15.4,18.9,15.3,18.9z"/>
			<path class="st20" d="M15.2,19.2c0,0-0.1,0-0.1,0C15.1,19.2,15.2,19.2,15.2,19.2z"/>
			<path class="st20" d="M15.5,19.2c0,0-0.1,0-0.1,0C15.4,19.2,15.4,19.2,15.5,19.2z"/>
			<path class="st15" d="M18.1,20.9C18.1,20.9,18.1,20.9,18.1,20.9C18.1,20.9,18.1,20.9,18.1,20.9z"/>
			<path class="st21" d="M15.1,15.6C15.1,15.6,15.1,15.6,15.1,15.6C15.1,15.6,15.1,15.6,15.1,15.6z"/>
			<path class="st14" d="M14.7,15.5C14.7,15.5,14.7,15.5,14.7,15.5C14.7,15.5,14.7,15.5,14.7,15.5z"/>
		</g>
	</g>
</g>
</svg>
