<?xml version="1.0" encoding="utf-8"?>
<!-- Generator: Adobe Illustrator 26.0.3, SVG Export Plug-In . SVG Version: 6.00 Build 0)  -->
<svg version="1.1" id="Layer_1" xmlns="http://www.w3.org/2000/svg" xmlns:xlink="http://www.w3.org/1999/xlink" x="0px" y="0px"
	 viewBox="0 0 143 32" style="enable-background:new 0 0 143 32;" xml:space="preserve">
<style type="text/css">
	.st0{display:none;fill:#FFFFFF;}
	.st1{fill:#1F2937;}
	.st2{fill:#FFCA0C;}
	.st3{fill:#F9A124;}
	.st4{fill:#FDE798;}
	.st5{fill:#FDE79A;}
	.st6{fill:#FDCA19;}
	.st7{fill:#4B505D;}
	.st8{fill:#4A4F5D;}
	.st9{fill:#FDE689;}
	.st10{fill:#4A4F5E;}
	.st11{fill:#F7A228;}
	.st12{fill:#5E626B;}
	.st13{fill:#F8A01F;}
	.st14{fill:#F16D24;}
	.st15{fill:#47423C;}
	.st16{fill:#E76F24;}
	.st17{fill:#E76F25;}
	.st18{fill:#865326;}
	.st19{fill:#8E5E2C;}
	.st20{fill:#BD7129;}
	.st21{fill:#885D2E;}
	.st22{fill:#F58921;}
</style>
<path class="st0" d="M58.7,11.1l-2,7.4l-2.2-7.4h-2.9l-2.2,7.4l-2-7.4H44l3.8,12h3l2.2-7.3l2.2,7.3h3l3.8-12H58.7z M68.9,23.5
	c3.5,0,6.4-2.8,6.4-6.3s-2.8-6.3-6.4-6.3s-6.3,2.8-6.3,6.3S65.3,23.5,68.9,23.5z M68.9,20.4c-1.8,0-3.2-1.4-3.2-3.3s1.4-3.3,3.2-3.3
	c1.8,0,3.3,1.4,3.3,3.3S70.7,20.4,68.9,20.4z M80.5,13.2v-2.1h-3.1v12h3.1v-5.7c0-2.5,2-3.2,3.6-3v-3.5
	C82.6,10.9,81.1,11.6,80.5,13.2z M97,23.1L92,17l4.8-5.9h-3.7L89,16.4V6.3h-3v16.8h3.1v-5.4l4.4,5.4C93.5,23.1,97,23.1,97,23.1z
	 M105,6c-3.8,0-5.6,1.7-5.6,5v0.1h-1.7v3h1.7v9h3.1v-9h2v-3h-2V11c0-1.6,0.9-2.3,2.5-2.3c0.3,0,0.6,0,1,0v14.4h3.1V6.5
	C107.8,6.2,106.5,6,105,6z M117.6,23.5c3.5,0,6.4-2.8,6.4-6.3s-2.8-6.3-6.4-6.3s-6.3,2.8-6.3,6.3S114.1,23.5,117.6,23.5z
	 M117.6,20.4c-1.8,0-3.2-1.4-3.2-3.3s1.4-3.3,3.2-3.3c1.8,0,3.3,1.4,3.3,3.3S119.5,20.4,117.6,20.4z M139.2,11.1l-2,7.4l-2.2-7.4
	h-2.9l-2.2,7.4l-2-7.4h-3.3l3.8,12h3l2.2-7.3l2.2,7.3h3l3.8-12H139.2L139.2,11.1z"/>
<g>
	<path class="st1" d="M42.9,21.5h-5.4l-1,3h-5l5.7-17.1h6.5l5.7,17.1H44L42.9,21.5z M40.2,12.7L40.2,12.7l-1.6,5.2h3L40.2,12.7z"/>
	<path class="st1" d="M54.5,10.3v14.2h-3.9V10.3H54.5z"/>
	<path class="st1" d="M60.4,10.3v14.2h-3.9V10.3H60.4z"/>
	<path class="st1" d="M76.2,11.6c0,2.5-1.3,3.5-2.9,4v0.1c1.8,0.4,3.3,1.5,3.3,4.3c0,2.5-2.1,4.5-4.7,4.5h-9.5v-17h9.4
		C74.2,7.5,76.2,9.3,76.2,11.6z M71.3,12.4c0-1-0.5-1.3-1.2-1.3h-2.9V14H70C71,14,71.3,13.2,71.3,12.4z M71.6,19
		c0-1-0.5-1.3-1.2-1.3h-3.2v2.9h3.2C71.3,20.6,71.6,19.8,71.6,19z"/>
	<path class="st1" d="M87.4,17.5v4.2c0,0.5,0.3,0.7,0.6,0.7c0.2,0,0.5-0.1,0.7-0.2v2.1c-0.4,0.3-1,0.5-2,0.5c-1.8,0-2.7-0.7-2.9-1.6
		c-0.7,0.8-1.6,1.6-3.3,1.6c-1.6,0-3.6-0.3-3.6-3c0-2.8,2.5-3.4,6.6-3.4v-0.6c0-0.8-0.6-1.2-1.3-1.2c-0.6,0-1.3,0.4-1.3,0.9v0.1
		h-3.8c0-0.1,0-0.2,0-0.3c0-1.7,1.8-3,4.7-3h0.7C85.9,14.3,87.4,15.7,87.4,17.5z M81.1,21.4c0,0.8,0.6,0.9,1.2,0.9
		c0.7,0,1.3-0.5,1.3-1.4V20C81.8,20.1,81.1,20.7,81.1,21.4z"/>
	<path class="st1" d="M93.7,10.3v14.2h-3.9V10.3H93.7z"/>
	<path class="st1" d="M99.6,10.3v14.2h-3.9V10.3H99.6z"/>
	<path class="st1" d="M116.3,14.5h-4.9c0-2.5-0.8-3.4-2.6-3.4c-1.5,0-2.5,1-2.5,2.5v4.8c0,1.5,0.9,2.5,2.5,2.5
		c2.1,0,2.9-0.8,2.9-3.3h4.7c0,4.5-3,7.2-7,7.2h-0.7c-4.4,0-7.9-2.7-7.9-7.5v-2.6c0-4.5,3.6-7.5,7.7-7.5h0.7
		C113.2,7.2,116.3,9.6,116.3,14.5z"/>
	<path class="st1" d="M127.4,17.5v4.2c0,0.5,0.3,0.7,0.6,0.7c0.2,0,0.5-0.1,0.7-0.2v2.1c-0.4,0.3-1,0.5-2,0.5
		c-1.8,0-2.7-0.7-2.9-1.6c-0.7,0.8-1.6,1.6-3.3,1.6c-1.6,0-3.6-0.3-3.6-3c0-2.8,2.5-3.4,6.6-3.4v-0.6c0-0.8-0.6-1.2-1.3-1.2
		c-0.6,0-1.3,0.4-1.3,0.9v0.1h-3.8c0-0.1,0-0.2,0-0.3c0-1.7,1.8-3,4.7-3h0.7C125.9,14.3,127.4,15.7,127.4,17.5z M121.1,21.4
		c0,0.8,0.6,0.9,1.2,0.9c0.7,0,1.3-0.5,1.3-1.4V20C121.8,20.1,121.1,20.7,121.1,21.4z"/>
	<path class="st1" d="M133.8,10.3v14.2h-3.9V10.3H133.8z"/>
	<path class="st1" d="M139.7,10.3v14.2h-3.9V10.3H139.7z"/>
</g>
<g>
	<g>
		<g>
			<path class="st2" d="M8.8,23.3c-0.3-0.3-0.6-0.6-0.9-0.9c0,0,0,0-0.1-0.1c0,0,0-0.1-0.1-0.1l0,0l-0.1-0.1c0-0.1-0.1-0.2-0.1-0.3
				c-0.7-1.2-0.9-2.5-0.8-3.9c0.2-1.5,0.8-2.9,1.8-4c1.5-1.6,3.4-2.3,5.6-2.1c0,0.1,0,0.2,0,0.4c0,0.5,0.2,0.7,0.7,0.7l0,0
				c0,0,0.1,0,0.1,0.1c1.3,0,2.5,0,3.8,0c0.5,0,0.6-0.1,0.6-0.6s0.1-0.6,0.6-0.6c2.3,0,4.7,0,7,0c0.2,0,0.3,0.1,0.5,0.1
				c0,0.1,0.1,0.2,0.1,0.3c0,0.8,0,1.5,0,2.3c0,0.2-0.1,0.4-0.4,0.4c-0.9,0.1-1.8,0.2-2.7,0.3c-1,0.1-2,0.3-3.1,0.4
				c-0.6,0.1-1.1,0.1-1.7,0.2c-0.4,0.1-0.5,0.2-0.4,0.5c0.2,0.9,0.2,1.8,0.1,2.7c-0.2,1.4-0.9,2.7-1.9,3.7c-0.7,0.7-1.6,1.3-2.6,1.6
				c-1.5,0.5-3,0.5-4.5-0.1C9.9,24,9.5,23.8,9,23.6l0,0c0,0-0.1,0-0.1-0.1l0,0C8.9,23.4,8.9,23.4,8.8,23.3L8.8,23.3L8.8,23.3z
				 M15.6,15.3L15.6,15.3c0,0-0.1,0-0.1-0.1l0,0c0-0.1-0.1-0.1-0.1-0.2c-0.6-0.5-1.3-0.7-2-0.8c-1.9-0.1-3.4,1-3.9,2.8
				c-0.3,1.3-0.1,2.4,0.8,3.4l0,0c0,0,0,0.1,0.1,0.1c0.2,0.1,0.3,0.3,0.5,0.4c1.5,1.1,3.6,1,4.9-0.3c1-1,1.3-2.1,1.1-3.5
				C16.6,16.6,16.3,15.9,15.6,15.3C15.7,15.4,15.7,15.4,15.6,15.3z"/>
			<path class="st3" d="M9,23.5c0.4,0.2,0.8,0.4,1.3,0.6c1.5,0.6,3,0.6,4.5,0.1c1-0.3,1.9-0.9,2.6-1.6c1-1,1.7-2.2,1.9-3.7
				c0.2-0.9,0.1-1.8-0.1-2.7c-0.1-0.3,0.1-0.5,0.4-0.5c0.6-0.1,1.1-0.1,1.7-0.2c1-0.1,2-0.3,3.1-0.4c0.9-0.1,1.8-0.2,2.7-0.3
				c0.2,0,0.4-0.2,0.4-0.4c0-0.8,0-1.5,0-2.3c0-0.1,0-0.2-0.1-0.3c0.1-0.1,0.2-0.2,0.3-0.3c0,0.1,0.1,0.3,0.1,0.4c0,0.9,0,1.8,0,2.7
				c0,0.4-0.1,0.5-0.5,0.6c-1.5,0.2-3.1,0.4-4.6,0.6c-0.9,0.1-1.8,0.2-2.7,0.3c-0.5,0.1-0.5,0.2-0.4,0.7c0.3,1.3,0.2,2.6-0.4,3.9
				c-1,2.3-2.8,3.8-5.3,4.2c-1.8,0.3-3.4-0.1-4.9-1.1C9.2,23.6,9.1,23.5,9,23.5z"/>
			<path class="st4" d="M14.2,11.7c-2.2-0.1-4.1,0.5-5.6,2.1c-1.1,1.1-1.7,2.4-1.8,4c-0.1,1.4,0.1,2.7,0.8,3.9
				c0.1,0.1,0.1,0.2,0.1,0.3c-0.3-0.3-0.6-0.6-0.7-1c-0.2-0.6-0.4-1.2-0.6-1.8c0-0.7,0-1.5,0-2.2c0.2-1.3,0.8-2.4,1.6-3.4
				c1.2-1.3,2.6-2,4.3-2.3c0.6-0.1,1.3,0,1.9,0c0.1,0,0.2,0.1,0.2,0.1C14.4,11.5,14.3,11.6,14.2,11.7z"/>
			<path class="st5" d="M27.9,11.5c-0.1,0.1-0.2,0.2-0.3,0.3c-0.2,0-0.3-0.1-0.5-0.1c-2.3,0-4.7,0-7,0c-0.5,0-0.6,0.1-0.6,0.6
				s-0.1,0.6-0.6,0.6c-1.3,0-2.5,0-3.8,0c0,0-0.1,0-0.1-0.1l0,0c-0.1-0.1-0.2-0.3-0.2-0.4c0.1,0,0.3,0.1,0.4,0.1c1.2,0,2.3,0,3.5,0
				c0.4,0,0.5-0.1,0.5-0.5c0-0.5,0.1-0.6,0.6-0.6c0.1,0,0.2,0.1,0.4,0.1c2.3,0,4.6,0,7,0c0.1,0,0.2,0,0.3-0.1
				C27.5,11.4,27.7,11.4,27.9,11.5z"/>
			<path class="st6" d="M6.4,17c0,0.7,0,1.5,0,2.2c-0.9,0.6-1.8,0.5-2.3-0.3c-0.4-0.6-0.3-1.4,0.2-1.9s1.3-0.6,1.9-0.2
				C6.3,16.9,6.3,16.9,6.4,17z M4.6,18.1c0,0.4,0.3,0.8,0.7,0.8c0.4,0,0.8-0.4,0.8-0.8s-0.4-0.8-0.8-0.8C5,17.3,4.6,17.7,4.6,18.1z"
				/>
			<path class="st7" d="M14.9,9.7c-0.3-0.5-0.7-1-1-1.6C14,8,14.1,7.9,14.2,7.9c0.3,0.5,0.7,1.1,1,1.6C15.1,9.5,15,9.6,14.9,9.7z"/>
			<path class="st8" d="M19.8,8.1c-0.3,0.5-0.7,1.1-1,1.6c-0.1-0.1-0.2-0.1-0.3-0.2c0.3-0.5,0.7-1.1,1-1.6C19.6,7.9,19.7,8,19.8,8.1
				z"/>
			<path class="st9" d="M27.4,11.3c-0.1,0-0.2,0.1-0.3,0.1c-2.3,0-4.6,0-7,0c-0.1,0-0.2,0-0.4-0.1C22.3,11.3,24.8,11.3,27.4,11.3z"
				/>
			<path class="st10" d="M16.7,9c0-0.6,0-1.1,0-1.7c0.2,0,0.3,0.1,0.3,0.3c0,0.4,0,0.8,0,1.2C16.9,8.9,16.9,9,16.7,9z"/>
			<path class="st11" d="M14.7,12.4c0.1,0.1,0.2,0.3,0.2,0.4c-0.5,0-0.7-0.2-0.7-0.7c0-0.1,0-0.2,0-0.4c0.1-0.1,0.2-0.2,0.3-0.2
				C14.5,11.7,14.6,12,14.7,12.4C14.6,12.3,14.7,12.3,14.7,12.4L14.7,12.4z"/>
			<path class="st12" d="M16.7,9C16.9,9,17,8.9,17,8.7c0-0.4,0-0.8,0-1.2c0-0.2-0.1-0.3-0.3-0.3c0.1,0,0.2-0.1,0.4-0.1
				c0,0.7,0,1.3,0,1.9C16.9,9,16.8,9,16.7,9z"/>
			<path class="st3" d="M8.8,23.3l0.1,0.1C8.9,23.4,8.9,23.4,8.8,23.3z"/>
			<path class="st5" d="M14.7,12.4C14.7,12.3,14.6,12.3,14.7,12.4C14.6,12.3,14.7,12.3,14.7,12.4z"/>
			<path class="st4" d="M7.7,22.2C7.8,22.2,7.8,22.2,7.7,22.2C7.8,22.2,7.7,22.2,7.7,22.2L7.7,22.2z"/>
			<path class="st4" d="M7.8,22.3C7.9,22.3,7.9,22.4,7.8,22.3C7.9,22.4,7.9,22.3,7.8,22.3z"/>
			<path class="st3" d="M8.8,23.3L8.8,23.3L8.8,23.3z"/>
			<path class="st3" d="M9,23.4C9,23.4,9,23.5,9,23.4C9,23.5,9,23.4,9,23.4z"/>
			<path class="st13" d="M15.7,15.4c0.6,0.5,0.9,1.2,1.1,1.9c0.3,1.3-0.1,2.5-1.1,3.5c-1.3,1.3-3.4,1.4-4.9,0.3
				c-0.2-0.1-0.3-0.3-0.5-0.4c0,0,0-0.1-0.1-0.1l0,0c0-0.1,0-0.1,0-0.2c-0.6-0.9-0.7-2-0.4-3c0.5-1.9,2.4-3,4.3-2.6
				c0.5,0.1,0.9,0.3,1.3,0.5l0,0C15.5,15.3,15.6,15.3,15.7,15.4C15.6,15.3,15.6,15.3,15.7,15.4L15.7,15.4z"/>
			<path class="st14" d="M15.5,15.3c-0.4-0.2-0.9-0.4-1.3-0.5c-1.9-0.4-3.8,0.7-4.3,2.6c-0.3,1-0.2,2,0.4,3c0,0.1,0,0.1,0,0.2
				c-0.9-1-1.2-2.2-0.8-3.4c0.5-1.8,2.1-2.9,3.9-2.8c0.7,0,1.4,0.3,2,0.8C15.4,15.2,15.5,15.2,15.5,15.3z"/>
			<path class="st11" d="M15,12.8c0,0,0.1,0,0.1,0.1C15,12.8,15,12.8,15,12.8z"/>
			<path class="st14" d="M15.6,15.3c0,0-0.1,0-0.1-0.1C15.5,15.3,15.6,15.3,15.6,15.3z"/>
			<path class="st14" d="M15.7,15.4L15.7,15.4L15.7,15.4z"/>
			<path class="st14" d="M10.3,20.6L10.3,20.6L10.3,20.6z"/>
		</g>
	</g>
	<g>
		<g>
			<path class="st15" d="M13,14.3c0.6,0,1.1,0.1,1.6,0.3c0.4,0.2,0.7,0.4,1,0.6c0.4,0.3,0.7,0.7,0.9,1.1c0.2,0.4,0.3,0.8,0.4,1.3
				c0.1,0.7,0,1.4-0.4,2.1c-0.1,0.3-0.3,0.5-0.5,0.7c-0.5,0.6-1.2,1.1-2,1.2c-0.2,0-0.4,0.1-0.6,0.1c-0.5,0-1,0-1.5-0.2
				s-0.9-0.4-1.2-0.7c-0.4-0.3-0.7-0.7-0.9-1.2c-0.2-0.4-0.3-0.8-0.4-1.3c-0.1-0.7,0-1.4,0.4-2.1c0.3-0.6,0.7-1,1.2-1.4
				c0.5-0.3,1-0.5,1.6-0.6C12.7,14.2,12.8,14.2,13,14.3C12.8,14.3,12.9,14.3,13,14.3z M16.4,19.5L16.4,19.5L16.4,19.5
				c0.2-0.3,0.2-0.7,0.3-1v-0.1c-0.1,0.1-0.2,0.1-0.2,0.2l0,0c-0.3,0.2-0.6,0.4-0.9,0.5c-0.2,0.1-0.4,0.1-0.6,0.1l0,0v0.1
				c0,0.1,0,0.2,0,0.3v0.1c0.1,0,0.1,0,0.2,0c0.1,0,0.2,0,0.3,0c0.2,0,0.4,0.1,0.6,0.3c0,0,0,0.1,0.1,0.1c0.1-0.1,0.1-0.2,0.2-0.2
				C16.2,19.9,16.3,19.7,16.4,19.5L16.4,19.5z M16.1,17.5L16.1,17.5c-0.3,0.3-0.6,0.5-1,0.7c-0.1,0-0.2,0-0.3,0.1c0,0.3,0,0.5,0,0.8
				c0.3-0.1,0.7-0.2,1-0.3c0.2-0.1,0.4-0.2,0.5-0.3c0.1-0.1,0.2-0.2,0.3-0.3l0,0c0-0.1,0-0.2,0-0.3c0-0.3-0.1-0.6-0.2-0.9l0,0
				c-0.1,0.1-0.1,0.2-0.2,0.3C16.3,17.3,16.2,17.4,16.1,17.5z M9.5,18c0,0.1,0,0.1,0,0.2v0.1c0,0,0,0,0,0.1c0.1,0.1,0.1,0.2,0.2,0.2
				l0,0c0.2,0.1,0.4,0.3,0.6,0.3c0.4,0.1,0.8,0.2,1.2,0.3c0.2,0,0.4,0,0.5,0s0.3,0,0.4,0c0.1,0,0.3,0,0.4,0c0.1,0,0.1,0,0.2,0
				c0.1,0,0.2,0,0.4,0c0.1,0,0.2,0,0.2,0c0.2,0,0.4,0,0.6-0.1c0.1,0,0.2,0,0.4-0.1l0,0c0-0.1,0-0.3,0-0.4s0-0.2,0-0.3l0,0
				c-0.1,0-0.1,0-0.2,0h-0.1h-0.1h-0.1c0,0,0,0-0.1,0s-0.2,0-0.3,0c-0.2,0-0.4-0.1-0.6-0.2c-0.3-0.1-0.6-0.3-0.9-0.5
				c-0.4-0.3-0.7-0.5-1-0.8c-0.1-0.1-0.3-0.2-0.4-0.4c-0.1-0.1-0.3-0.2-0.4-0.3c-0.1,0-0.1-0.1-0.2-0.1c-0.1,0.1-0.1,0.2-0.2,0.3
				C9.7,16.8,9.5,17.3,9.5,18z M14.1,15.7L14.1,15.7c0.1,0.2,0.2,0.4,0.2,0.5c0.2,0.4,0.3,0.8,0.3,1.2c0,0.1,0,0.3,0.1,0.4
				c0,0.1,0,0.1,0,0.2c0.3,0,0.6-0.2,0.8-0.3c0.2-0.1,0.3-0.2,0.4-0.4l0,0c0.1-0.2,0.2-0.4,0.3-0.7c0,0,0,0,0-0.1
				c-0.4-0.9-1-1.5-1.9-1.8c-0.3-0.1-0.5-0.2-0.8-0.2c-0.1,0-0.2,0-0.4,0c0,0,0,0-0.1,0l0,0l0,0c0.3,0.2,0.5,0.5,0.7,0.8
				C14,15.4,14.1,15.6,14.1,15.7L14.1,15.7z M13,21.6c0.1,0,0.1,0,0.2,0c0.1,0,0.1,0,0.2,0c0.2,0,0.4,0,0.6-0.1c0.1,0,0.1,0,0.2-0.1
				l0,0c0.2-0.4,0.3-0.8,0.4-1.2c0-0.1,0-0.1,0-0.2l0,0l0,0c-0.4,0.1-0.7,0.2-1.1,0.4c-0.5,0.3-1,0.6-1.5,1l0,0
				C12.3,21.6,12.7,21.6,13,21.6z M13.9,15.6L13.9,15.6c-0.1-0.2-0.2-0.3-0.3-0.5c-0.2-0.2-0.4-0.4-0.7-0.6c-0.1,0-0.1,0-0.2,0
				c-0.1,0-0.3,0-0.4,0.1c-0.8,0.2-1.4,0.6-2,1.2l0,0c0.1,0.1,0.2,0.1,0.3,0.2c0.1,0.1,0.3,0.2,0.4,0.3l0,0c0.1,0.1,0.2,0.2,0.4,0.3
				c0.4,0.3,0.7,0.6,1.1,0.9c0.3,0.2,0.6,0.4,1,0.5c0.2,0.1,0.5,0.1,0.8,0.2h0.1l0,0h0.1c0.1,0,0.1,0,0.2,0c0-0.1,0-0.1,0-0.2
				c0-0.2,0-0.3-0.1-0.5c-0.1-0.4-0.2-0.9-0.4-1.3C14.1,16,14,15.8,13.9,15.6L13.9,15.6z M9.8,19.5L9.8,19.5
				c0.1,0.2,0.2,0.4,0.3,0.6c0.4,0.6,1,1,1.7,1.3h0.1c0.3-0.3,0.7-0.5,1-0.7c0.5-0.4,1.1-0.7,1.7-0.8l0,0c0-0.1,0-0.3,0-0.4v-0.1
				c-0.1,0-0.3,0-0.4,0.1c-0.3,0-0.6,0.1-0.8,0.1c-0.1,0-0.2,0-0.4,0c-0.1,0-0.2,0-0.3,0s-0.2,0-0.4,0c-0.1,0-0.1,0-0.2,0
				c-0.1,0-0.2,0-0.3,0s-0.2,0-0.3,0s-0.3,0-0.4-0.1c-0.3-0.1-0.6-0.1-0.8-0.2S9.9,19.1,9.7,19c-0.1-0.1-0.1-0.1-0.2-0.2l0,0
				c0,0.2,0.1,0.3,0.1,0.5C9.7,19.2,9.7,19.4,9.8,19.5z M14.3,21.4C14.3,21.4,14.4,21.4,14.3,21.4c0.4-0.2,0.7-0.3,1-0.6
				c0.2-0.1,0.3-0.3,0.4-0.4c0,0,0,0,0-0.1s-0.1-0.1-0.2-0.2c0-0.1-0.2-0.1-0.4-0.1c-0.1,0-0.2,0-0.3,0l0,0c0,0.3-0.1,0.5-0.2,0.8
				C14.5,21,14.4,21.2,14.3,21.4z"/>
			<path class="st16" d="M13.9,15.6C13.9,15.6,13.8,15.6,13.9,15.6c-0.2,0-0.4-0.1-0.6-0.1c-0.5,0-1,0.1-1.5,0.3
				c-0.3,0.1-0.5,0.3-0.7,0.4c-0.1-0.1-0.3-0.2-0.4-0.3c-0.1-0.1-0.2-0.1-0.3-0.2l0,0c0.5-0.6,1.2-1,2-1.2c0.1,0,0.3,0,0.4-0.1
				c0.1,0,0.1,0,0.2,0c0.3,0.1,0.5,0.3,0.7,0.6C13.7,15.3,13.8,15.4,13.9,15.6z"/>
			<path class="st16" d="M14.1,15.7c-0.1-0.1-0.2-0.3-0.2-0.4c-0.2-0.3-0.4-0.6-0.7-0.8l0,0l0,0h0.1c0.1,0,0.2,0,0.4,0
				c0.3,0,0.6,0.1,0.8,0.2c0.9,0.4,1.5,1,1.9,1.8c0,0,0,0,0,0.1c-0.1,0.2-0.2,0.5-0.3,0.7l0,0l0,0c-0.2-0.4-0.5-0.7-0.8-0.9
				c-0.3-0.2-0.6-0.4-1-0.6C14.2,15.7,14.2,15.7,14.1,15.7L14.1,15.7L14.1,15.7z"/>
			<path class="st16" d="M10.8,16.4c-0.2,0.2-0.3,0.3-0.5,0.5c-0.3,0.4-0.5,0.8-0.6,1.2c0,0.1,0,0.3-0.1,0.4
				c-0.1-0.1-0.2-0.2-0.2-0.2s0,0,0-0.1v-0.1c0-0.1,0-0.1,0-0.2c0-0.6,0.2-1.2,0.5-1.7c0.1-0.1,0.1-0.2,0.2-0.3
				c0.1,0,0.1,0.1,0.2,0.1C10.5,16.2,10.7,16.3,10.8,16.4z"/>
			<path class="st16" d="M16.4,18.4c0-0.1,0-0.3-0.1-0.4c0-0.2-0.1-0.3-0.2-0.4c0,0,0,0,0-0.1c0.1-0.1,0.1-0.2,0.2-0.3
				c0.1-0.1,0.1-0.2,0.2-0.3l0,0c0.1,0.3,0.2,0.6,0.2,0.9c0,0.1,0,0.2,0,0.3l0,0C16.6,18.2,16.5,18.3,16.4,18.4z"/>
			<path class="st17" d="M16.4,19.5c0-0.1,0-0.1,0-0.2c0-0.2,0-0.5,0-0.7l0,0c0.1-0.1,0.2-0.1,0.2-0.2v0.1
				C16.6,18.8,16.5,19.2,16.4,19.5L16.4,19.5z"/>
			<path class="st17" d="M9.7,18.8c0,0.2,0,0.5,0.1,0.7c0,0,0,0,0,0.1c-0.1-0.1-0.1-0.3-0.2-0.4c0-0.1-0.1-0.3-0.1-0.5l0,0
				C9.6,18.7,9.7,18.7,9.7,18.8z"/>
			<path class="st18" d="M9.5,18c0,0.1,0,0.1,0,0.2C9.5,18.1,9.5,18,9.5,18z"/>
			<path class="st19" d="M13,21.6c0.1,0,0.1,0,0.2,0C13.1,21.6,13,21.6,13,21.6z"/>
			<path class="st20" d="M14.2,18.1h0.1H14.2z"/>
			<path class="st20" d="M14.3,18.1h0.1C14.4,18.1,14.4,18.1,14.3,18.1z"/>
			<path class="st21" d="M14.3,18.3C14.2,18.3,14.2,18.3,14.3,18.3C14.2,18.3,14.2,18.3,14.3,18.3z"/>
			<path class="st21" d="M14.4,18.3L14.4,18.3L14.4,18.3z"/>
			<path class="st17" d="M16.4,19.5L16.4,19.5L16.4,19.5z"/>
			<path class="st22" d="M14.1,15.7L14.1,15.7L14.1,15.7z"/>
			<path class="st16" d="M13.9,15.6L13.9,15.6L13.9,15.6z"/>
		</g>
	</g>
</g>
</svg>
