<svg id="Layer_1" data-name="Layer 1" xmlns="http://www.w3.org/2000/svg" viewBox="0 0 135.85 17.9"><defs><style>.cls-1{fill:#ffca0c;}.cls-2{fill:#f9a124;}.cls-3{fill:#fde798;}.cls-4{fill:#fde79a;}.cls-5{fill:#fdca19;}.cls-6{fill:#4b505d;}.cls-7{fill:#4a4f5d;}.cls-8{fill:#fde689;}.cls-9{fill:#4a4f5e;}.cls-10{fill:#f7a228;}.cls-11{fill:#5e626b;}.cls-12{fill:#f8a01f;}.cls-13{fill:#f16d24;}.cls-14{fill:#47423c;}.cls-15{fill:#e76f24;}.cls-16{fill:#e76f25;}.cls-17{fill:#865326;}.cls-18{fill:#8e5e2c;}.cls-19{fill:#bd7129;}.cls-20{fill:#885d2e;}.cls-21{fill:#f58921;}</style></defs><path d="M42.9,21.5H37.5l-1,3h-5L37.2,7.4h6.5l5.7,17.1H44Zm-2.7-8.8h-.1l-1.5,5.2h3Z" transform="translate(-3.85 -7.1)"/><path d="M54.5,10.3V24.5H50.6V10.3Z" transform="translate(-3.85 -7.1)"/><path d="M60.4,10.3V24.5H56.5V10.3Z" transform="translate(-3.85 -7.1)"/><path d="M76.2,11.6a3.73,3.73,0,0,1-2.9,4v.1c1.8.4,3.3,1.5,3.3,4.3a4.59,4.59,0,0,1-4.7,4.5H62.4V7.5h9.4A4.25,4.25,0,0,1,76.2,11.6Zm-4.9.8c0-1-.5-1.3-1.2-1.3H67.2V14H70C71,14,71.3,13.2,71.3,12.4Zm.3,6.6c0-1-.5-1.3-1.2-1.3H67.2v2.9h3.2C71.3,20.6,71.6,19.8,71.6,19Z" transform="translate(-3.85 -7.1)"/><path d="M87.4,17.5v4.2c0,.5.3.7.6.7a1.85,1.85,0,0,0,.7-.2v2.1a3.22,3.22,0,0,1-2,.5c-1.8,0-2.7-.7-2.9-1.6a4.05,4.05,0,0,1-3.3,1.6c-1.6,0-3.6-.3-3.6-3s2.5-3.4,6.6-3.4v-.6a1.18,1.18,0,0,0-1.3-1.2c-.6,0-1.3.4-1.3.9v.1H77.1v-.3c0-1.7,1.8-3,4.7-3h.7C85.9,14.3,87.4,15.7,87.4,17.5Zm-6.3,3.9c0,.8.6.9,1.2.9a1.29,1.29,0,0,0,1.3-1.4V20C81.8,20.1,81.1,20.7,81.1,21.4Z" transform="translate(-3.85 -7.1)"/><path d="M93.7,10.3V24.5H89.8V10.3Z" transform="translate(-3.85 -7.1)"/><path d="M99.6,10.3V24.5H95.7V10.3Z" transform="translate(-3.85 -7.1)"/><path d="M116.3,14.5h-4.9c0-2.5-.8-3.4-2.6-3.4a2.36,2.36,0,0,0-2.5,2.5v4.8a2.31,2.31,0,0,0,2.5,2.5c2.1,0,2.9-.8,2.9-3.3h4.7c0,4.5-3,7.2-7,7.2h-.7c-4.4,0-7.9-2.7-7.9-7.5V14.7a7.47,7.47,0,0,1,7.7-7.5h.7C113.2,7.2,116.3,9.6,116.3,14.5Z" transform="translate(-3.85 -7.1)"/><path d="M127.4,17.5v4.2c0,.5.3.7.6.7a1.85,1.85,0,0,0,.7-.2v2.1a3.22,3.22,0,0,1-2,.5c-1.8,0-2.7-.7-2.9-1.6a4.05,4.05,0,0,1-3.3,1.6c-1.6,0-3.6-.3-3.6-3s2.5-3.4,6.6-3.4v-.6a1.18,1.18,0,0,0-1.3-1.2c-.6,0-1.3.4-1.3.9v.1h-3.8v-.3c0-1.7,1.8-3,4.7-3h.7C125.9,14.3,127.4,15.7,127.4,17.5Zm-6.3,3.9c0,.8.6.9,1.2.9a1.29,1.29,0,0,0,1.3-1.4V20C121.8,20.1,121.1,20.7,121.1,21.4Z" transform="translate(-3.85 -7.1)"/><path d="M133.8,10.3V24.5h-3.9V10.3Z" transform="translate(-3.85 -7.1)"/><path d="M139.7,10.3V24.5h-3.9V10.3Z" transform="translate(-3.85 -7.1)"/><path class="cls-1" d="M8.8,23.3l-.9-.9-.1-.1a.1.1,0,0,0-.1-.1h0l-.1-.1c0-.1-.1-.2-.1-.3a6.57,6.57,0,0,1-.8-3.9,7.34,7.34,0,0,1,1.8-4,6.54,6.54,0,0,1,5.6-2.1v.4c0,.5.2.7.7.7h0a.1.1,0,0,1,.1.1h3.8c.5,0,.6-.1.6-.6s.1-.6.6-.6h7c.2,0,.3.1.5.1,0,.1.1.2.1.3v2.3a.37.37,0,0,1-.4.4l-2.7.3c-1,.1-2,.3-3.1.4-.6.1-1.1.1-1.7.2-.4.1-.5.2-.4.5a8.17,8.17,0,0,1,.1,2.7,6.62,6.62,0,0,1-1.9,3.7,6.33,6.33,0,0,1-2.6,1.6,6.35,6.35,0,0,1-4.5-.1c-.4-.2-.8-.4-1.3-.6H9a.1.1,0,0,1-.1-.1h0c0-.1,0-.1-.1-.2Zm6.8-8h0a.1.1,0,0,1-.1-.1h0c0-.1-.1-.1-.1-.2a3.86,3.86,0,0,0-2-.8A3.7,3.7,0,0,0,9.5,17a3.52,3.52,0,0,0,.8,3.4h0a.1.1,0,0,0,.1.1c.2.1.3.3.5.4a3.8,3.8,0,0,0,6-3.8,6.17,6.17,0,0,0-1.3-1.8Z" transform="translate(-3.85 -7.1)"/><path class="cls-2" d="M9,23.5c.4.2.8.4,1.3.6a6.35,6.35,0,0,0,4.5.1,6.33,6.33,0,0,0,2.6-1.6,6.31,6.31,0,0,0,1.9-3.7,6.16,6.16,0,0,0-.1-2.7c-.1-.3.1-.5.4-.5.6-.1,1.1-.1,1.7-.2,1-.1,2-.3,3.1-.4l2.7-.3a.43.43,0,0,0,.4-.4V12.1a.37.37,0,0,0-.1-.3l.3-.3c0,.1.1.3.1.4v2.7c0,.4-.1.5-.5.6l-4.6.6-2.7.3c-.5.1-.5.2-.4.7a5.89,5.89,0,0,1-.4,3.9,6.75,6.75,0,0,1-5.3,4.2A6.55,6.55,0,0,1,9,23.8C9.2,23.6,9.1,23.5,9,23.5Z" transform="translate(-3.85 -7.1)"/><path class="cls-3" d="M14.2,11.7a6.83,6.83,0,0,0-5.6,2.1,6,6,0,0,0-1.8,4,6.57,6.57,0,0,0,.8,3.9.37.37,0,0,1,.1.3A2.29,2.29,0,0,1,7,21l-.6-1.8V17A7.14,7.14,0,0,1,8,13.6a7.3,7.3,0,0,1,4.3-2.3,12.05,12.05,0,0,1,1.9,0,.35.35,0,0,1,.2.1C14.4,11.5,14.3,11.6,14.2,11.7Z" transform="translate(-3.85 -7.1)"/><path class="cls-4" d="M27.9,11.5l-.3.3c-.2,0-.3-.1-.5-.1h-7c-.5,0-.6.1-.6.6s-.1.6-.6.6H15.1a.1.1,0,0,1-.1-.1h0a.76.76,0,0,1-.2-.4c.1,0,.3.1.4.1h3.5c.4,0,.5-.1.5-.5s.1-.6.6-.6c.1,0,.2.1.4.1h7a.37.37,0,0,0,.3-.1A1,1,0,0,1,27.9,11.5Z" transform="translate(-3.85 -7.1)"/><path class="cls-5" d="M6.4,17v2.2a1.52,1.52,0,1,1-.2-2.4ZM4.6,18.1a.77.77,0,0,0,.7.8.8.8,0,0,0,0-1.6A.86.86,0,0,0,4.6,18.1Z" transform="translate(-3.85 -7.1)"/><path class="cls-6" d="M14.9,9.7c-.3-.5-.7-1-1-1.6.1-.1.2-.2.3-.2.3.5.7,1.1,1,1.6C15.1,9.5,15,9.6,14.9,9.7Z" transform="translate(-3.85 -7.1)"/><path class="cls-7" d="M19.8,8.1c-.3.5-.7,1.1-1,1.6-.1-.1-.2-.1-.3-.2.3-.5.7-1.1,1-1.6C19.6,7.9,19.7,8,19.8,8.1Z" transform="translate(-3.85 -7.1)"/><path class="cls-8" d="M27.4,11.3c-.1,0-.2.1-.3.1h-7a.76.76,0,0,1-.4-.1Z" transform="translate(-3.85 -7.1)"/><path class="cls-9" d="M16.7,9V7.3a.27.27,0,0,1,.3.3V8.8C16.9,8.9,16.9,9,16.7,9Z" transform="translate(-3.85 -7.1)"/><path class="cls-10" d="M14.7,12.4a.76.76,0,0,1,.2.4c-.5,0-.7-.2-.7-.7v-.4c.1-.1.2-.2.3-.2a5.07,5.07,0,0,0,.2.9c-.1-.1,0-.1,0,0Z" transform="translate(-3.85 -7.1)"/><path class="cls-11" d="M16.7,9a.27.27,0,0,0,.3-.3V7.5a.27.27,0,0,0-.3-.3c.1,0,.2-.1.4-.1V9Z" transform="translate(-3.85 -7.1)"/><path class="cls-2" d="M8.8,23.3l.1.1Z" transform="translate(-3.85 -7.1)"/><path class="cls-4" d="M14.7,12.4c0-.1-.1-.1,0,0C14.6,12.3,14.7,12.3,14.7,12.4Z" transform="translate(-3.85 -7.1)"/><path class="cls-3" d="M7.7,22.2Z" transform="translate(-3.85 -7.1)"/><path class="cls-3" d="M7.8,22.3c.1,0,.1.1,0,0C7.9,22.4,7.9,22.3,7.8,22.3Z" transform="translate(-3.85 -7.1)"/><path class="cls-2" d="M8.8,23.3Z" transform="translate(-3.85 -7.1)"/><path class="cls-2" d="M9,23.4Z" transform="translate(-3.85 -7.1)"/><path class="cls-12" d="M15.7,15.4a3.68,3.68,0,0,1,1.1,1.9,3.62,3.62,0,0,1-1.1,3.5,3.79,3.79,0,0,1-4.9.3c-.2-.1-.3-.3-.5-.4a.1.1,0,0,0-.1-.1h0v-.2a3.54,3.54,0,0,1-.4-3,3.63,3.63,0,0,1,4.3-2.6,5,5,0,0,1,1.3.5h0a.37.37,0,0,1,.3.1Z" transform="translate(-3.85 -7.1)"/><path class="cls-13" d="M15.5,15.3a6.94,6.94,0,0,0-1.3-.5,3.63,3.63,0,0,0-4.3,2.6,3.59,3.59,0,0,0,.4,3v.2a3.35,3.35,0,0,1-.8-3.4,3.77,3.77,0,0,1,3.9-2.8,3.18,3.18,0,0,1,2,.8A.1.1,0,0,1,15.5,15.3Z" transform="translate(-3.85 -7.1)"/><path class="cls-10" d="M15,12.8a.1.1,0,0,1,.1.1Z" transform="translate(-3.85 -7.1)"/><path class="cls-13" d="M15.6,15.3a.1.1,0,0,1-.1-.1A.1.1,0,0,0,15.6,15.3Z" transform="translate(-3.85 -7.1)"/><path class="cls-13" d="M15.7,15.4Z" transform="translate(-3.85 -7.1)"/><path class="cls-13" d="M10.3,20.6Z" transform="translate(-3.85 -7.1)"/><path class="cls-14" d="M13,14.3a4.15,4.15,0,0,1,1.6.3,8.79,8.79,0,0,1,1,.6,3.13,3.13,0,0,1,.9,1.1,5,5,0,0,1,.4,1.3,3.19,3.19,0,0,1-.4,2.1,1.79,1.79,0,0,1-.5.7,3.22,3.22,0,0,1-2,1.2c-.2,0-.4.1-.6.1a3.89,3.89,0,0,1-1.5-.2,3.46,3.46,0,0,1-1.2-.7,2.73,2.73,0,0,1-.9-1.2,5,5,0,0,1-.4-1.3,3.19,3.19,0,0,1,.4-2.1A4.07,4.07,0,0,1,11,14.8a4.42,4.42,0,0,1,1.6-.6h.3C12.8,14.3,12.9,14.3,13,14.3Zm3.4,5.2h0a3.81,3.81,0,0,0,.3-1v-.1c-.1.1-.2.1-.2.2h0a4.05,4.05,0,0,1-.9.5,1.27,1.27,0,0,1-.6.1h0v.5h.5a.86.86,0,0,1,.6.3.1.1,0,0,0,.1.1c.1-.1.1-.2.2-.2-.2,0-.1-.2,0-.4Zm-.3-2h0a3.59,3.59,0,0,1-1,.7.37.37,0,0,0-.3.1v.8c.3-.1.7-.2,1-.3a2.19,2.19,0,0,0,.5-.3l.3-.3h0v-.3a2.92,2.92,0,0,0-.2-.9h0c-.1.1-.1.2-.2.3C16.3,17.3,16.2,17.4,16.1,17.5ZM9.5,18v.4c.1.1.1.2.2.2h0c.2.1.4.3.6.3l1.2.3h2.1a1.27,1.27,0,0,0,.6-.1.76.76,0,0,0,.4-.1h0v-.7h-.9a1.42,1.42,0,0,1-.6-.2,4.05,4.05,0,0,1-.9-.5,8.74,8.74,0,0,1-1-.8c-.1-.1-.3-.2-.4-.4s-.3-.2-.4-.3-.1-.1-.2-.1-.1.2-.2.3A3.1,3.1,0,0,0,9.5,18Zm4.6-2.3h0a1.69,1.69,0,0,1,.2.5,2.66,2.66,0,0,1,.3,1.2.6.6,0,0,0,.1.4V18a1.91,1.91,0,0,0,.8-.3.78.78,0,0,0,.4-.4h0a4.88,4.88,0,0,0,.3-.7v-.1a3.08,3.08,0,0,0-1.9-1.8,2.35,2.35,0,0,0-.8-.2H13a2.7,2.7,0,0,1,.7.8c.3.1.4.3.4.4ZM13,21.6h.4a1.27,1.27,0,0,0,.6-.1c.1,0,.1,0,.2-.1h0a5.64,5.64,0,0,0,.4-1.2V20h0a4.87,4.87,0,0,0-1.1.4,13,13,0,0,0-1.5,1h0A1.8,1.8,0,0,0,13,21.6Zm.9-6h0c-.1-.2-.2-.3-.3-.5a4.35,4.35,0,0,0-.7-.6h-.2a.6.6,0,0,0-.4.1,4.15,4.15,0,0,0-2,1.2h0c.1.1.2.1.3.2s.3.2.4.3h0a1.38,1.38,0,0,0,.4.3c.4.3.7.6,1.1.9a3.13,3.13,0,0,0,1,.5c.2.1.5.1.8.2h.4V18a.9.9,0,0,0-.1-.5,6.47,6.47,0,0,0-.4-1.3l-.3-.6ZM9.8,19.5h0l.3.6a3.71,3.71,0,0,0,1.7,1.3h.1a6.07,6.07,0,0,1,1-.7,3.81,3.81,0,0,1,1.7-.8h0v-.5a.6.6,0,0,0-.4.1c-.3,0-.6.1-.8.1H11.5a.6.6,0,0,1-.4-.1c-.3-.1-.6-.1-.8-.2L9.7,19l-.2-.2h0c0,.2.1.3.1.5C9.7,19.2,9.7,19.4,9.8,19.5Zm4.5,1.9h0a3.33,3.33,0,0,0,1-.6c.2-.1.3-.3.4-.4v-.1c0-.1-.1-.1-.2-.2s-.2-.1-.4-.1h-.3a2.35,2.35,0,0,1-.2.8Z" transform="translate(-3.85 -7.1)"/><path class="cls-15" d="M13.9,15.6h0c-.2,0-.4-.1-.6-.1a4,4,0,0,0-1.5.3,4.35,4.35,0,0,0-.7.4c-.1-.1-.3-.2-.4-.3s-.2-.1-.3-.2h0a3.74,3.74,0,0,1,2-1.2.6.6,0,0,0,.4-.1H13a1.34,1.34,0,0,1,.7.6A1.07,1.07,0,0,0,13.9,15.6Z" transform="translate(-3.85 -7.1)"/><path class="cls-15" d="M14.1,15.7a.76.76,0,0,1-.2-.4,2.7,2.7,0,0,0-.7-.8h.5a1.88,1.88,0,0,1,.8.2,3.72,3.72,0,0,1,1.9,1.8v.1c-.1.2-.2.5-.3.7h0a2.36,2.36,0,0,0-.8-.9,8.79,8.79,0,0,0-1-.6c-.1-.1-.1-.1-.2-.1Z" transform="translate(-3.85 -7.1)"/><path class="cls-15" d="M10.8,16.4l-.5.5a3.38,3.38,0,0,0-.6,1.2.6.6,0,0,1-.1.4l-.2-.2v-.4a3.37,3.37,0,0,1,.5-1.7c.1-.1.1-.2.2-.3s.1.1.2.1C10.5,16.2,10.7,16.3,10.8,16.4Z" transform="translate(-3.85 -7.1)"/><path class="cls-15" d="M16.4,18.4a.6.6,0,0,0-.1-.4.52.52,0,0,0-.2-.4v-.1c.1-.1.1-.2.2-.3s.1-.2.2-.3h0a2.92,2.92,0,0,1,.2.9v.3h0Z" transform="translate(-3.85 -7.1)"/><path class="cls-16" d="M16.4,19.5v-.9h0c.1-.1.2-.1.2-.2v.1a3.55,3.55,0,0,1-.2,1Z" transform="translate(-3.85 -7.1)"/><path class="cls-16" d="M9.7,18.8a1.7,1.7,0,0,0,.1.7v.1c-.1-.1-.1-.3-.2-.4a4.33,4.33,0,0,1-.1-.5h0C9.6,18.7,9.7,18.7,9.7,18.8Z" transform="translate(-3.85 -7.1)"/><path class="cls-17" d="M9.5,18v0Z" transform="translate(-3.85 -7.1)"/><path class="cls-18" d="M13,21.6h0Z" transform="translate(-3.85 -7.1)"/><path class="cls-19" d="M14.2,18.1h0Z" transform="translate(-3.85 -7.1)"/><path class="cls-19" d="M14.3,18.1h0Z" transform="translate(-3.85 -7.1)"/><path class="cls-20" d="M14.3,18.3Z" transform="translate(-3.85 -7.1)"/><path class="cls-20" d="M14.4,18.3Z" transform="translate(-3.85 -7.1)"/><path class="cls-16" d="M16.4,19.5Z" transform="translate(-3.85 -7.1)"/><path class="cls-21" d="M14.1,15.7Z" transform="translate(-3.85 -7.1)"/><path class="cls-15" d="M13.9,15.6Z" transform="translate(-3.85 -7.1)"/></svg>